<svg xmlns="http://www.w3.org/2000/svg" width="500" height="200" viewBox="0 0 500 200" version="1.1">
	<path d="M 400 16.657 C 398.075 16.842, 391.325 17.469, 385 18.050 C 336.555 22.500, 265.432 37.184, 207 54.801 C 193.641 58.829, 189.923 59.545, 180.086 59.987 L 168.672 60.500 167.537 63.879 C 166.552 66.815, 165.559 67.565, 159.952 69.612 C 156.403 70.907, 153.162 71.974, 152.750 71.983 C 152.338 71.993, 152 70.503, 152 68.674 C 152 66.393, 151.190 64.587, 149.421 62.924 L 146.841 60.500 113.671 60.201 C 90.591 59.992, 79.220 60.256, 76.292 61.069 C 69.837 62.860, 64.620 68.009, 60.090 77.059 C 55.334 86.562, 47 111.496, 47 116.223 C 47 119.252, 46.272 120.089, 39.342 125.035 C 28.386 132.853, 20.211 141.374, 16.848 148.482 C 13.278 156.030, 13.207 161.015, 16.573 167.771 C 21.133 176.922, 30.293 181.792, 48.313 184.646 C 60.855 186.633, 101.154 186.046, 122 183.573 C 191.133 175.372, 276.993 154.804, 348.191 129.387 C 359.572 125.324, 369.114 122, 369.397 122 C 369.680 122, 369.256 123.857, 368.456 126.126 C 367.655 128.395, 367 130.645, 367 131.126 C 367 131.607, 371.619 132, 377.263 132 L 387.527 132 391.013 121.832 L 394.500 111.665 402.500 108.137 C 429.301 96.318, 458.393 79.442, 470.578 68.645 C 475.986 63.853, 482.382 55.127, 483.511 51 C 483.969 49.324, 483.224 49.984, 481.250 53 C 464.269 78.953, 392.229 113.727, 302.041 139.505 C 221.478 162.533, 139.480 175.497, 86 173.663 C 60.393 172.785, 43.531 169.633, 38.250 164.737 C 32.573 159.474, 38.437 151.575, 57.127 139.308 L 67.500 132.500 94 131.967 C 124.520 131.354, 125.476 131.119, 132.251 122.585 C 136.020 117.837, 143.065 104.685, 144.234 100.212 C 144.759 98.207, 155.210 93.433, 155.779 94.938 C 155.933 95.344, 153.121 103.712, 149.529 113.534 C 145.938 123.355, 143 131.528, 143 131.695 C 143 131.863, 147.676 132, 153.391 132 L 163.782 132 168.070 120.250 C 170.428 113.787, 174.242 103.345, 176.544 97.045 L 180.731 85.590 186.428 83.691 C 189.561 82.646, 192.337 82.003, 192.595 82.262 C 192.966 82.632, 181.488 115.352, 176.109 129.262 L 175.041 132.023 214.172 131.762 L 253.304 131.500 256.539 122.765 L 259.774 114.031 231.637 113.765 C 204.128 113.506, 203.507 113.455, 203.835 111.500 C 204.019 110.400, 204.700 108.375, 205.348 107 L 206.526 104.500 235.013 104.234 L 263.500 103.968 266.250 96.194 C 267.762 91.919, 269 88.101, 269 87.710 C 269 87.320, 256.400 87, 241 87 C 225.600 87, 213 86.678, 213 86.283 C 213 85.889, 213.734 83.646, 214.630 81.299 L 216.260 77.030 244.804 76.765 L 273.349 76.500 276.217 68.585 C 278.434 62.468, 278.798 60.493, 277.821 59.889 C 276.117 58.836, 276.776 58.629, 293.087 55.098 C 327.354 47.679, 361.707 42.183, 391 39.432 C 422.285 36.495, 456.753 38.505, 461.961 43.572 C 463.234 44.811, 462.626 45.766, 457.207 51.035 C 453.790 54.358, 446.833 59.777, 441.747 63.076 C 431.676 69.608, 407.139 82.472, 406.317 81.650 C 406.036 81.370, 407.425 76.765, 409.403 71.418 C 411.381 66.072, 413 61.315, 413 60.848 C 413 60.382, 408.387 60.001, 402.750 60.003 L 392.500 60.006 386.750 75.882 C 383.587 84.614, 381 92.200, 381 92.740 C 381 93.770, 370.017 98.351, 369.291 97.624 C 369.060 97.393, 370.025 92.996, 371.435 87.852 C 374.945 75.046, 374.835 71.021, 370.852 66.484 C 365.051 59.877, 365.894 59.998, 325.800 60.016 L 289.500 60.032 276.673 95.487 C 269.618 114.986, 264.101 131.355, 264.414 131.861 C 264.727 132.367, 260.917 133.785, 255.947 135.013 C 250.978 136.241, 247.085 137.418, 247.295 137.629 C 248.199 138.533, 290.967 128.106, 313.500 121.488 C 351.186 110.420, 380.538 99.229, 410.500 84.503 C 440.570 69.725, 463.612 53.836, 470.027 43.456 C 474.276 36.582, 472.317 28.852, 464.756 22.656 C 460.925 19.517, 459.378 18.990, 449.862 17.577 C 440.193 16.141, 410.958 15.602, 400 16.657 M 83.041 77.619 C 81.329 79.060, 79.232 81.585, 78.380 83.232 C 75.925 87.980, 69.883 105.216, 70.469 105.802 C 71.180 106.514, 97.199 94.084, 98.610 92.358 C 99.221 91.611, 100.571 91.002, 101.610 91.004 C 104.269 91.009, 129 80.975, 129 79.892 C 129 79.401, 128.100 78.100, 127 77 C 125.137 75.137, 123.667 75, 105.577 75 L 86.153 75 83.041 77.619 M 304.075 78.861 C 302.455 81.888, 292 111.118, 292 112.620 C 292 113.743, 295.302 113.991, 309.750 113.950 C 327.249 113.900, 327.620 113.854, 336 110.685 L 344.500 107.471 348.399 96.110 C 354.755 77.593, 354.080 77.036, 325.285 77.015 C 306.590 77.001, 304.996 77.140, 304.075 78.861 M 112.990 110.823 L 104.500 114.500 109.841 114.805 C 113.428 115.011, 115.961 114.600, 117.556 113.555 C 119.824 112.069, 122.539 108.206, 121.821 107.488 C 121.633 107.300, 117.659 108.801, 112.990 110.823" stroke="none" fill="#ffffff" fill-rule="evenodd"/>
</svg>