<svg xmlns="http://www.w3.org/2000/svg" width="756" height="681" viewBox="0 0 756 681" version="1.1">
	<path d="M 80.427 11.741 C 85.556 97.876, 125.287 174.533, 192.465 227.909 C 226.296 254.789, 270.725 275.956, 311.296 284.522 C 317.883 285.913, 323.662 287.291, 324.137 287.585 C 324.612 287.878, 325 288.991, 325 290.059 C 325 291.969, 323.158 292, 209 292 L 93 292 93 343.500 L 93 395 198.250 395.061 L 303.500 395.121 296.298 397.057 C 264.156 405.695, 225.709 424.674, 198.659 445.257 C 126.639 500.059, 85.086 578.237, 80.395 667.759 L 79.700 681.018 132.600 680.759 L 185.500 680.500 186.169 668 C 186.864 655.026, 189.486 640.360, 193.470 627.169 C 208.928 575.983, 245.698 533.034, 293.373 510.480 C 303.662 505.612, 321.228 499, 323.869 499 C 324.702 499, 325 522.958, 325 590 L 325 681 375.500 681 L 426 681 426 590 C 426 525.401, 426.314 499, 427.082 499 C 429.013 499, 443.271 504.177, 452.500 508.228 C 483.845 521.989, 513.298 547.019, 533.440 577.012 C 541.002 588.274, 551.129 609, 555.421 622 C 560.724 638.065, 565 662.375, 565 676.461 L 565 681 617.655 681 L 670.311 681 669.674 666.250 C 666.521 593.218, 633.145 520.446, 579.058 468.676 C 544.097 435.211, 503.041 411.530, 455.729 397.540 L 447.500 395.106 552.750 395.053 L 658 395 658 343.500 L 658 292 542 292 L 426 292 426 289.545 C 426 287.491, 426.612 286.985, 429.750 286.440 C 431.813 286.083, 439.575 284.284, 447 282.444 C 498.438 269.695, 543.733 244.071, 582.131 206 C 598.061 190.206, 609.542 176.567, 619.903 161.128 C 649.528 116.986, 667.240 64.366, 669.677 13.250 L 670.308 0 617.792 0 L 565.275 0 564.594 8.750 C 560.976 55.263, 543.368 94.787, 511.523 127.875 C 495.035 145.007, 478.045 157.286, 456.699 167.498 C 446.251 172.497, 429.147 179, 426.448 179 C 426.202 179, 426 138.725, 426 89.500 L 426 0 375.500 0 L 325 0 325 89.500 C 325 166.272, 324.797 179, 323.576 179 C 317.663 179, 290.144 166.958, 275.265 157.860 C 251.363 143.245, 227.553 119.140, 212.681 94.500 C 197.438 69.247, 187.904 39.292, 186.162 11.177 L 185.500 0.500 132.614 0.241 L 79.727 -0.018 80.427 11.741" stroke="none" fill="#ffffff" fill-rule="evenodd"/>
</svg>